<?xml version="1.0" encoding="UTF-8" standalone="no"?>
<!-- Created with Inkscape (http://www.inkscape.org/) -->

<svg
   xmlns:dc="http://purl.org/dc/elements/1.1/"
   xmlns:cc="http://creativecommons.org/ns#"
   xmlns:rdf="http://www.w3.org/1999/02/22-rdf-syntax-ns#"
   xmlns:svg="http://www.w3.org/2000/svg"
   xmlns="http://www.w3.org/2000/svg"
   xmlns:sodipodi="http://sodipodi.sourceforge.net/DTD/sodipodi-0.dtd"
   xmlns:inkscape="http://www.inkscape.org/namespaces/inkscape"
   version="1.1"
   id="svg29"
   xml:space="preserve"
   width="404.96216"
   height="121.11218"
   viewBox="0 0 404.96216 121.11218"
   sodipodi:docname="trichlab.svg"
   inkscape:version="0.92.3 (d244b95, 2018-08-02)"
   inkscape:export-filename="/home/natacha/Documents/code/trich-lab/src/assets/images/trichlab.png.png"
   inkscape:export-xdpi="96"
   inkscape:export-ydpi="96"><metadata
     id="metadata35"><rdf:RDF><cc:Work
         rdf:about=""><dc:format>image/svg+xml</dc:format><dc:type
           rdf:resource="http://purl.org/dc/dcmitype/StillImage" /><dc:title></dc:title></cc:Work></rdf:RDF></metadata><defs
     id="defs33"><clipPath
       clipPathUnits="userSpaceOnUse"
       id="clipPath49"><path
         d="M 0,1000 H 1000 V 0 H 0 Z"
         id="path47"
         inkscape:connector-curvature="0" /></clipPath></defs><sodipodi:namedview
     pagecolor="#ffffff"
     bordercolor="#666666"
     borderopacity="1"
     objecttolerance="10"
     gridtolerance="10"
     guidetolerance="10"
     inkscape:pageopacity="0"
     inkscape:pageshadow="2"
     inkscape:window-width="1920"
     inkscape:window-height="1025"
     id="namedview31"
     showgrid="false"
     inkscape:lockguides="true"
     inkscape:snap-center="false"
     inkscape:zoom="0.62925004"
     inkscape:cx="310.95408"
     inkscape:cy="24.446408"
     inkscape:window-x="0"
     inkscape:window-y="27"
     inkscape:window-maximized="1"
     inkscape:current-layer="g37"
     fit-margin-top="0"
     fit-margin-left="0"
     fit-margin-right="0"
     fit-margin-bottom="0" /><g
     id="g37"
     inkscape:groupmode="layer"
     inkscape:label="trich"
     transform="matrix(1.3333333,0,0,-1.3333333,-68.068543,842.79213)"><g
       id="g392"><g
         transform="matrix(0.33689889,0,0,0.33689889,66.313602,620.70012)"
         id="g39"><path
           inkscape:connector-curvature="0"
           id="path41"
           style="fill:#343939;fill-opacity:1;fill-rule:nonzero;stroke:none"
           d="M 0,0 V -102.084 H -17.951 V 0 H -45.302 V 16.873 H 27.273 V 0 Z" /></g><g
         transform="matrix(0.33689889,0,0,0.33689889,34.164292,418.74076)"
         id="g43"><g
           clip-path="url(#clipPath49)"
           id="g45"><g
             transform="translate(130.02,572.4229)"
             id="g51"><path
               inkscape:connector-curvature="0"
               id="path53"
               style="fill:#343939;fill-opacity:1;fill-rule:nonzero;stroke:none"
               d="m 0,0 h 17.335 v -6.702 c 3.184,3.338 6.01,5.624 8.475,6.856 2.516,1.283 5.496,1.926 8.937,1.926 4.571,0 9.348,-1.49 14.33,-4.468 l -7.935,-15.871 c -3.288,2.362 -6.498,3.544 -9.631,3.544 -9.451,0 -14.176,-7.14 -14.176,-21.419 V -75.041 H 0 Z" /></g><path
             inkscape:connector-curvature="0"
             id="path55"
             style="fill:#343939;fill-opacity:1;fill-rule:nonzero;stroke:none"
             d="m 208.759,497.382 h -17.335 v 75.041 h 17.335 z m -19.954,106.244 c 0,3.03 1.104,5.649 3.313,7.858 2.208,2.208 4.853,3.314 7.935,3.314 3.132,0 5.804,-1.106 8.013,-3.314 2.208,-2.157 3.312,-4.802 3.312,-7.935 0,-3.133 -1.104,-5.805 -3.312,-8.013 -2.157,-2.209 -4.804,-3.312 -7.936,-3.312 -3.133,0 -5.804,1.103 -8.012,3.312 -2.209,2.208 -3.313,4.905 -3.313,8.09" /><g
             transform="translate(289.1167,569.1875)"
             id="g57"><path
               inkscape:connector-curvature="0"
               id="path59"
               style="fill:#343939;fill-opacity:1;fill-rule:nonzero;stroke:none"
               d="m 0,0 v -23.036 c -3.955,4.827 -7.5,8.14 -10.632,9.938 -3.082,1.849 -6.703,2.774 -10.863,2.774 -6.524,0 -11.943,-2.286 -16.257,-6.857 -4.314,-4.572 -6.472,-10.298 -6.472,-17.181 0,-7.037 2.08,-12.816 6.242,-17.335 4.211,-4.521 9.578,-6.78 16.101,-6.78 4.161,0 7.832,0.898 11.018,2.697 3.082,1.745 6.703,5.135 10.863,10.17 v -22.883 c -7.037,-3.646 -14.073,-5.47 -21.11,-5.47 -11.609,0 -21.316,3.749 -29.122,11.248 -7.809,7.551 -11.711,16.924 -11.711,28.122 0,11.197 3.954,20.648 11.864,28.352 7.909,7.705 17.617,11.556 29.123,11.556 C -13.56,5.315 -6.575,3.544 0,0" /></g><g
             transform="translate(309.9966,627.5098)"
             id="g61"><path
               inkscape:connector-curvature="0"
               id="path63"
               style="fill:#343939;fill-opacity:1;fill-rule:nonzero;stroke:none"
               d="m 0,0 h 17.335 v -61.327 c 6.163,5.547 12.969,8.32 20.417,8.32 8.475,0 15.255,-2.748 20.34,-8.243 4.314,-4.777 6.471,-12.404 6.471,-22.883 v -45.995 H 47.229 v 44.378 c 0,6.009 -1.068,10.362 -3.198,13.059 -2.133,2.696 -5.56,4.045 -10.286,4.045 -6.06,0 -10.323,-1.875 -12.789,-5.625 -2.415,-3.801 -3.621,-10.324 -3.621,-19.569 v -36.288 H 0 Z" /></g><g
             transform="translate(466.4741,616.3389)"
             id="g65"><path
               inkscape:connector-curvature="0"
               id="path67"
               style="fill:#343939;fill-opacity:1;fill-rule:nonzero;stroke:none"
               d="m 0,0 v -102.084 h 34.977 v -16.873 H -17.952 V 0 Z" /></g><g
             transform="translate(529.3418,535.1338)"
             id="g69"><path
               inkscape:connector-curvature="0"
               id="path71"
               style="fill:#343939;fill-opacity:1;fill-rule:nonzero;stroke:none"
               d="m 0,0 c 0,-7.191 1.926,-13.047 5.777,-17.566 3.955,-4.573 8.938,-6.857 14.948,-6.857 6.42,0 11.607,2.207 15.562,6.625 3.955,4.571 5.934,10.375 5.934,17.412 0,7.037 -1.979,12.841 -5.934,17.412 -3.955,4.469 -9.09,6.703 -15.408,6.703 -5.959,0 -10.94,-2.26 -14.947,-6.78 C 1.977,12.378 0,6.728 0,0 M 41.141,37.289 H 58.553 V -37.752 H 41.141 v 7.858 c -7.139,-6.677 -14.819,-10.015 -23.036,-10.015 -10.375,0 -18.953,3.749 -25.732,11.248 -6.73,7.653 -10.094,17.207 -10.094,28.661 0,11.248 3.364,20.621 10.094,28.121 6.727,7.499 15.15,11.248 25.27,11.248 8.732,0 16.564,-3.596 23.498,-10.786 z" /></g><g
             transform="translate(668.3301,534.3633)"
             id="g73"><path
               inkscape:connector-curvature="0"
               id="path75"
               style="fill:#343939;fill-opacity:1;fill-rule:nonzero;stroke:none"
               d="m 0,0 c 0,7.19 -1.951,13.046 -5.855,17.566 -3.956,4.622 -8.913,6.934 -14.87,6.934 -6.369,0 -11.556,-2.234 -15.562,-6.703 -3.957,-4.418 -5.934,-10.17 -5.934,-17.258 0,-7.294 1.953,-13.124 5.856,-17.489 3.904,-4.468 9.041,-6.702 15.41,-6.702 6.01,0 10.99,2.234 14.945,6.702 C -2.002,-12.431 0,-6.78 0,0 M -41.219,93.146 V 29.354 c 6.934,7.19 14.793,10.786 23.576,10.786 10.118,0 18.541,-3.775 25.27,-11.326 6.728,-7.5 10.094,-16.847 10.094,-28.043 0,-11.557 -3.391,-21.111 -10.17,-28.662 -6.729,-7.499 -15.229,-11.248 -25.502,-11.248 -8.68,0 -16.438,3.338 -23.268,10.016 v -7.858 H -58.553 V 93.146 Z" /></g><g
             transform="translate(853.5762,465.707)"
             id="g167"><path
               inkscape:connector-curvature="0"
               id="path169"
               style="fill:#343939;fill-opacity:1;fill-rule:nonzero;stroke:none"
               d="m 0,0 c 1.827,0 3.308,-1.48 3.308,-3.308 0,-1.827 -1.481,-3.307 -3.308,-3.307 -1.827,0 -3.308,1.48 -3.308,3.307 C -3.308,-1.48 -1.827,0 0,0" /></g><g
             transform="translate(885.001,470.6689)"
             id="g171"><path
               inkscape:connector-curvature="0"
               id="path173"
               style="fill:#343939;fill-opacity:1;fill-rule:nonzero;stroke:none"
               d="m 0,0 c 1.827,0 3.309,-1.48 3.309,-3.308 0,-1.827 -1.482,-3.307 -3.309,-3.307 -1.826,0 -3.308,1.48 -3.308,3.307 C -3.308,-1.48 -1.826,0 0,0" /></g><g
             transform="translate(872.1006,449.333)"
             id="g175"><path
               inkscape:connector-curvature="0"
               id="path177"
               style="fill:#343939;fill-opacity:1;fill-rule:nonzero;stroke:none"
               d="m 0,0 c 1.827,0 3.308,-1.48 3.308,-3.308 0,-1.827 -1.481,-3.307 -3.308,-3.307 -1.827,0 -3.308,1.48 -3.308,3.307 C -3.308,-1.48 -1.827,0 0,0" /></g><g
             transform="translate(837.8643,452.3105)"
             id="g179"><path
               inkscape:connector-curvature="0"
               id="path181"
               style="fill:#343939;fill-opacity:1;fill-rule:nonzero;stroke:none"
               d="m 0,0 c 1.322,0 2.48,-0.331 3.473,-0.827 l 5.293,6.946 c -0.662,1.158 -0.993,2.482 -0.993,3.97 0,4.466 3.639,7.938 7.939,7.938 4.466,0 7.939,-3.638 7.939,-7.938 0,-0.992 -0.166,-1.819 -0.496,-2.647 l 7.774,-6.45 c 0.992,0.496 2.149,0.661 3.307,0.661 0.661,0 1.158,0 1.655,-0.165 l 5.127,8.105 c -1.324,1.488 -2.151,3.307 -2.151,5.458 0,4.466 3.639,7.938 7.94,7.938 3.803,0 6.946,-2.645 7.773,-6.284 H 65.826 C 60.368,34.401 43.829,47.137 24.312,47.137 0.33,47.137 -19.187,27.621 -19.187,3.639 c 0,-0.993 0,-2.151 0.166,-3.143 2.977,-1.158 7.774,-2.977 11.744,-4.466 C -5.458,-1.489 -2.813,0 0,0" /></g><g
             transform="translate(905.3447,464.2187)"
             id="g183"><path
               inkscape:connector-curvature="0"
               id="path185"
               style="fill:#343939;fill-opacity:1;fill-rule:nonzero;stroke:none"
               d="m 0,0 h -12.9 c -1.159,-2.978 -4.135,-4.962 -7.444,-4.962 -0.661,0 -1.488,0.165 -2.149,0.331 l -5.128,-7.773 c 1.489,-1.49 2.481,-3.474 2.481,-5.789 0,-4.466 -3.638,-7.94 -7.939,-7.94 -4.466,0 -7.939,3.639 -7.939,7.94 0,1.323 0.331,2.646 0.993,3.803 l -7.278,5.789 c -1.323,-0.827 -2.811,-1.323 -4.3,-1.323 -1.323,0 -2.481,0.331 -3.473,0.827 l -5.458,-6.946 c 0.661,-1.158 0.992,-2.481 0.992,-3.97 0,-4.466 -3.639,-7.939 -7.938,-7.939 -4.301,0 -7.775,3.308 -7.94,7.443 -3.474,1.323 -7.277,2.812 -9.924,3.804 3.97,-19.848 21.502,-34.899 42.672,-34.899 23.983,0 43.334,19.517 43.334,43.5 C 0.662,-5.293 0.496,-2.646 0,0" /></g><g
             transform="translate(837.8643,447.6797)"
             id="g187"><path
               inkscape:connector-curvature="0"
               id="path189"
               style="fill:#343939;fill-opacity:1;fill-rule:nonzero;stroke:none"
               d="m 0,0 c 1.826,0 3.308,-1.481 3.308,-3.309 0,-1.826 -1.482,-3.307 -3.308,-3.307 -1.827,0 -3.309,1.481 -3.309,3.307 C -3.309,-1.481 -1.827,0 0,0" /></g><g
             transform="translate(777.918,534.2388)"
             id="g191"><path
               inkscape:connector-curvature="0"
               id="path193"
               style="fill:#dc663f;fill-opacity:1;fill-rule:nonzero;stroke:none"
               d="m 0,0 c 0,-6.504 5.272,-11.777 11.776,-11.777 6.504,0 11.778,5.273 11.778,11.777 0,6.504 -5.274,11.777 -11.778,11.777 C 5.272,11.777 0,6.504 0,0" /></g><g
             transform="translate(776.0205,583.918)"
             id="g195"><path
               inkscape:connector-curvature="0"
               id="path197"
               style="fill:#dc663f;fill-opacity:1;fill-rule:nonzero;stroke:none"
               d="M 0,0 C 0,-2.462 1.996,-4.458 4.458,-4.458 6.92,-4.458 8.916,-2.462 8.916,0 8.916,2.462 6.92,4.458 4.458,4.458 1.996,4.458 0,2.462 0,0" /></g><g
             transform="translate(795.8203,614.9497)"
             id="g199"><path
               inkscape:connector-curvature="0"
               id="path201"
               style="fill:#dc663f;fill-opacity:1;fill-rule:nonzero;stroke:none"
               d="M 0,0 C 0,-2.462 1.996,-4.458 4.458,-4.458 6.92,-4.458 8.916,-2.462 8.916,0 8.916,2.462 6.92,4.458 4.458,4.458 1.996,4.458 0,2.462 0,0" /></g><g
             transform="translate(862.3428,405.708)"
             id="g203"><path
               inkscape:connector-curvature="0"
               id="path205"
               style="fill:#343939;fill-opacity:1;fill-rule:nonzero;stroke:none"
               d="m 0,0 c -27.793,0 -50.323,22.531 -50.323,50.323 0,27.793 22.53,50.324 50.323,50.324 27.792,0 50.322,-22.531 50.322,-50.324 C 50.322,22.531 27.792,0 0,0 m 0,108.389 c -32.069,0 -58.065,-25.996 -58.065,-58.066 0,-32.068 25.996,-58.064 58.065,-58.064 32.068,0 58.064,25.996 58.064,58.064 0,32.07 -25.996,58.066 -58.064,58.066" /></g><g
             transform="translate(799.7871,618.769)"
             id="g207"><path
               inkscape:connector-curvature="0"
               id="path209"
               style="fill:#dc663f;fill-opacity:1;fill-rule:nonzero;stroke:none"
               d="m 0,0 c 2.138,0 3.871,-1.733 3.871,-3.871 0,-2.138 -1.733,-3.871 -3.871,-3.871 -2.139,0 -3.871,1.733 -3.871,3.871 C -3.871,-1.733 -2.139,0 0,0 m 0,-15.484 c 6.413,0 11.612,5.199 11.612,11.613 0,6.414 -5.199,11.613 -11.612,11.613 -6.414,0 -11.613,-5.199 -11.613,-11.613 0,-6.414 5.199,-11.613 11.613,-11.613" /></g><g
             transform="translate(829.3613,523.813)"
             id="g211"><path
               inkscape:connector-curvature="0"
               id="path213"
               style="fill:#343939;fill-opacity:1;fill-rule:nonzero;stroke:none"
               d="m 0,0 c 0.716,-1.146 1.978,-1.835 3.329,-1.819 0.715,-0.018 1.417,0.185 2.013,0.58 1.797,1.13 2.349,3.495 1.239,5.303 L -2.787,18.93 v 86.672 c 0,2.137 -1.734,3.871 -3.871,3.871 -2.138,0 -3.871,-1.734 -3.871,-3.871 V 17.807 c 0.008,-0.729 0.223,-1.44 0.619,-2.052 z" /></g><g
             transform="translate(780.4316,587.8013)"
             id="g215"><path
               inkscape:connector-curvature="0"
               id="path217"
               style="fill:#dc663f;fill-opacity:1;fill-rule:nonzero;stroke:none"
               d="m 0,0 c 2.138,0 3.871,-1.733 3.871,-3.871 0,-2.138 -1.733,-3.871 -3.871,-3.871 -2.138,0 -3.871,1.733 -3.871,3.871 C -3.871,-1.733 -2.138,0 0,0 m 0,-15.484 c 6.414,0 11.613,5.199 11.613,11.613 0,6.413 -5.199,11.613 -11.613,11.613 -6.414,0 -11.613,-5.2 -11.613,-11.613 0,-6.414 5.199,-11.613 11.613,-11.613" /></g><g
             transform="translate(789.1416,523.9292)"
             id="g219"><path
               inkscape:connector-curvature="0"
               id="path221"
               style="fill:#dc663f;fill-opacity:1;fill-rule:nonzero;stroke:none"
               d="m 0,0 c -5.88,0 -10.646,4.766 -10.646,10.646 0,5.878 4.766,10.645 10.646,10.645 5.879,0 10.646,-4.767 10.646,-10.645 C 10.646,4.766 5.879,0 0,0 m 0,29.033 c -10.155,0 -18.388,-8.233 -18.388,-18.387 0,-10.156 8.233,-18.388 18.388,-18.388 10.155,0 18.388,8.232 18.388,18.388 C 18.388,20.8 10.155,29.033 0,29.033" /></g><g
             transform="translate(797.1934,414.999)"
             id="g223"><path
               inkscape:connector-curvature="0"
               id="path225"
               style="fill:#343939;fill-opacity:1;fill-rule:nonzero;stroke:none"
               d="m 0,0 h -94.492 c -3.113,-0.022 -5.998,1.635 -7.548,4.335 -1.552,2.655 -1.552,5.939 0,8.594 l 28.452,51.485 4.258,7.741 29.032,52.608 c 0.309,0.57 0.468,1.209 0.465,1.858 v 87.795 c 0,2.137 -1.733,3.871 -3.871,3.871 -2.138,0 -3.871,-1.734 -3.871,-3.871 V 127.744 L -108.698,16.723 c -4.49,-7.826 -1.785,-17.809 6.04,-22.299 2.485,-1.426 5.302,-2.173 8.166,-2.166 H 0 c 2.138,0 3.871,1.733 3.871,3.871 C 3.871,-1.733 2.138,0 0,0" /></g><g
             transform="translate(949.0664,377.8936)"
             id="g227"><path
               inkscape:connector-curvature="0"
               id="path229"
               style="fill:#343939;fill-opacity:1;fill-rule:nonzero;stroke:none"
               d="m 0,0 -27.723,27.358 c -1.641,1.641 -4.011,2.371 -6.2,2.371 L -43.955,39.76 c 0.976,1.157 -8.838,-8.829 -7.478,-7.66 l 9.849,-9.849 c -0.364,-2.371 0.547,-4.924 2.371,-6.931 l 27.905,-27.174 c 1.642,-1.642 3.648,-2.372 5.836,-2.372 2.189,0 4.377,0.913 5.836,2.554 C 3.465,-8.39 3.283,-3.101 0,0" /></g><g
             transform="translate(803.6523,422.7471)"
             id="g231"><path
               inkscape:connector-curvature="0"
               id="path233"
               style="fill:#dc663f;fill-opacity:1;fill-rule:nonzero;stroke:none"
               d="M 0,0 C 0,0 -16.396,28.717 -3.783,49.926 L -64.465,49.77 c 0,0 -5.175,-0.058 -8.208,-4.776 -3.033,-4.717 -23.165,-35.959 -23.165,-35.959 0,0 -5.053,-9.597 6.248,-9.597 C -78.29,-0.562 0,0 0,0" /></g></g></g><text
         transform="scale(0.92516524,-1.080888)"
         id="text237"
         y="-520.97424"
         x="63.791073"
         style="font-style:normal;font-variant:normal;font-weight:normal;font-stretch:normal;font-size:12.51141453px;line-height:1.25;font-family:'Lohit Devanagari';-inkscape-font-specification:'Lohit Devanagari, Normal';font-variant-ligatures:normal;font-variant-caps:normal;font-variant-numeric:normal;font-feature-settings:normal;text-align:start;letter-spacing:1.19767559px;word-spacing:0px;writing-mode:lr-tb;text-anchor:start;fill:#343939;fill-opacity:1;stroke:none;stroke-width:0.31278929"
         xml:space="preserve"><tspan
           style="stroke-width:0.31278929"
           y="-520.97424"
           x="63.791073"
           id="tspan245"
           sodipodi:role="line">BIG DATA &amp; ANALYTICS SOLUTIONS</tspan></text>
</g></g></svg>